# Blender 4.2.1 LTS
# www.blender.org
mtllib huge_monitor.mtl
o Cube
v 0.210187 2.149823 -5.230742
v 0.210187 -2.328751 -5.230742
v 0.121827 2.305974 4.537276
v 0.121827 -2.308409 4.537276
v -0.038243 2.291939 -5.187387
v -0.038243 -2.468274 -5.187387
v -0.120689 2.380107 4.673470
v -0.120689 -2.380107 4.673470
v 0.311421 -2.424060 10.436361
v 0.311421 2.336153 10.436361
v 0.545495 2.184554 10.338954
v 0.545495 -2.270975 10.338954
v 1.074478 -2.487619 -10.544466
v 0.840152 -2.629735 -10.587823
v 1.074478 1.990955 -10.544466
v 0.840152 2.130479 -10.587823
v 0.201996 2.220242 -5.051193
v 0.201996 -2.394141 -5.051193
v 1.081529 2.130479 -10.587823
v 1.081529 -2.629735 -10.587823
v 0.203135 2.291939 -5.187387
v 0.203135 -2.468274 -5.187387
v 0.127993 2.227021 4.770877
v 0.127993 -2.228507 4.770877
v 0.120689 2.380107 4.673470
v 0.120689 -2.380107 4.673470
v 0.552798 2.336153 10.436361
v 0.552798 -2.424060 10.436361
vn -0.0000 1.0000 -0.0089
vn -0.9972 -0.0000 0.0748
vn -1.0000 -0.0000 -0.0084
vn -0.0000 -1.0000 0.0089
vn -0.0000 -0.0000 1.0000
vn -0.0000 -1.0000 -0.0076
vn -0.0000 1.0000 0.0076
vn -0.0000 -0.0000 -1.0000
vn -0.9870 -0.0000 -0.1605
vn -0.0000 -0.9996 0.0299
vn -0.0000 0.9996 -0.0299
vn 0.9870 -0.0000 0.1605
vn 1.0000 -0.0000 0.0084
vn 0.9972 -0.0000 -0.0748
vt 0.625000 0.500000
vt 0.875000 0.500000
vt 0.875000 0.750000
vt 0.625000 0.750000
vt 0.625000 0.000000
vt 0.375000 0.000000
vt 0.625000 0.250000
vt 0.375000 0.250000
vt 0.125000 0.500000
vt 0.375000 0.500000
vt 0.375000 0.750000
vt 0.125000 0.750000
vt 0.625000 1.000000
vt 0.375000 1.000000
vt 0.382396 0.500000
vt 0.617604 0.500000
vt 0.617604 0.500000
vt 0.382396 0.500000
vt 0.621171 0.503453
vt 0.378829 0.503453
vt 0.378829 0.746547
vt 0.621171 0.746547
vt 0.616999 0.750000
vt 0.383001 0.750000
vt 0.383001 0.750000
vt 0.616999 0.750000
s 0
usemtl Material
f 21/1/1 5/2/1 7/3/1 25/4/1
f 7/5/2 8/6/2 9/6/2 10/5/2
f 8/6/3 7/5/3 5/7/3 6/8/3
f 6/9/4 22/10/4 26/11/4 8/12/4
f 28/11/5 27/4/5 10/13/5 9/14/5
f 8/12/6 26/11/6 28/11/6 9/12/6
f 25/4/7 7/3/7 10/3/7 27/4/7
f 14/8/8 16/7/8 19/1/8 20/10/8
f 6/8/9 5/7/9 16/7/9 14/8/9
f 22/10/10 6/9/10 14/9/10 20/10/10
f 5/2/11 21/1/11 19/1/11 16/2/11
f 2/15/12 1/16/12 21/1/12 22/10/12
f 15/17/12 13/18/12 20/10/12 19/1/12
f 13/18/12 2/15/12 22/10/12 20/10/12
f 1/16/12 15/17/12 19/1/12 21/1/12
f 17/19/13 18/20/13 22/10/13 21/1/13
f 4/21/13 3/22/13 25/4/13 26/11/13
f 3/22/13 17/19/13 21/1/13 25/4/13
f 18/20/13 4/21/13 26/11/13 22/10/13
f 23/23/14 24/24/14 26/11/14 25/4/14
f 12/25/14 11/26/14 27/4/14 28/11/14
f 24/24/14 12/25/14 28/11/14 26/11/14
f 11/26/14 23/23/14 25/4/14 27/4/14
o Cube.001
v 0.545495 2.184554 10.338954
v 0.545495 -2.270975 10.338954
v 0.127993 2.227021 4.770877
v 0.127993 -2.228507 4.770877
vn 0.9972 -0.0000 -0.0748
vt 0.383001 0.750000
vt 0.616999 0.750000
vt 0.616999 0.750000
vt 0.383001 0.750000
s 0
usemtl Material.001
f 32/27/15 31/28/15 29/29/15 30/30/15
o Cube.002
v 0.121827 2.305974 4.537276
v 0.121827 -2.308409 4.537276
v 0.201996 2.220242 -5.051193
v 0.201996 -2.394141 -5.051193
vn 1.0000 -0.0000 0.0084
vt 0.378829 0.503453
vt 0.621171 0.503453
vt 0.621171 0.746547
vt 0.378829 0.746547
s 0
usemtl Material.001
f 36/31/16 35/32/16 33/33/16 34/34/16
o Cube.003
v 0.210187 2.149823 -5.230742
v 0.210187 -2.328751 -5.230742
v 1.074478 -2.487619 -10.544466
v 1.074478 1.990955 -10.544466
vn 0.9870 -0.0000 0.1605
vt 0.617604 0.500000
vt 0.382396 0.500000
vt 0.382396 0.500000
vt 0.617604 0.500000
s 0
usemtl Material.001
f 37/35/17 38/36/17 39/37/17 40/38/17
o Cube.004
v 0.210187 6.892409 -5.230742
v 0.210187 2.413836 -5.230742
v 0.121827 7.048560 4.537276
v 0.121827 2.434177 4.537276
v -0.038243 7.034525 -5.187387
v -0.038243 2.274312 -5.187387
v -0.120689 7.122693 4.673470
v -0.120689 2.362479 4.673470
v 0.311421 2.318526 10.436361
v 0.311421 7.078739 10.436361
v 0.545495 6.927140 10.338954
v 0.545495 2.471611 10.338954
v 1.074478 2.254967 -10.544466
v 0.840152 2.112851 -10.587823
v 1.074478 6.733541 -10.544466
v 0.840152 6.873065 -10.587823
v 0.201996 6.962828 -5.051193
v 0.201996 2.348445 -5.051193
v 1.081529 6.873065 -10.587823
v 1.081529 2.112851 -10.587823
v 0.203135 7.034525 -5.187387
v 0.203135 2.274312 -5.187387
v 0.127993 6.969607 4.770877
v 0.127993 2.514079 4.770877
v 0.120689 7.122693 4.673470
v 0.120689 2.362479 4.673470
v 0.552798 7.078739 10.436361
v 0.552798 2.318526 10.436361
vn -0.0000 1.0000 -0.0089
vn -0.9972 -0.0000 0.0748
vn -1.0000 -0.0000 -0.0084
vn -0.0000 -1.0000 0.0089
vn -0.0000 -0.0000 1.0000
vn -0.0000 -1.0000 -0.0076
vn -0.0000 1.0000 0.0076
vn -0.0000 -0.0000 -1.0000
vn -0.9870 -0.0000 -0.1605
vn -0.0000 -0.9996 0.0299
vn -0.0000 0.9996 -0.0299
vn 0.9870 -0.0000 0.1605
vn 1.0000 -0.0000 0.0084
vn 0.9972 -0.0000 -0.0748
vt 0.625000 0.500000
vt 0.875000 0.500000
vt 0.875000 0.750000
vt 0.625000 0.750000
vt 0.625000 0.000000
vt 0.375000 0.000000
vt 0.625000 0.250000
vt 0.375000 0.250000
vt 0.125000 0.500000
vt 0.375000 0.500000
vt 0.375000 0.750000
vt 0.125000 0.750000
vt 0.625000 1.000000
vt 0.375000 1.000000
vt 0.382396 0.500000
vt 0.617604 0.500000
vt 0.617604 0.500000
vt 0.382396 0.500000
vt 0.621171 0.503453
vt 0.378829 0.503453
vt 0.378829 0.746547
vt 0.621171 0.746547
vt 0.616999 0.750000
vt 0.383001 0.750000
vt 0.383001 0.750000
vt 0.616999 0.750000
s 0
usemtl Material
f 61/39/18 45/40/18 47/41/18 65/42/18
f 47/43/19 48/44/19 49/44/19 50/43/19
f 48/44/20 47/43/20 45/45/20 46/46/20
f 46/47/21 62/48/21 66/49/21 48/50/21
f 68/49/22 67/42/22 50/51/22 49/52/22
f 48/50/23 66/49/23 68/49/23 49/50/23
f 65/42/24 47/41/24 50/41/24 67/42/24
f 54/46/25 56/45/25 59/39/25 60/48/25
f 46/46/26 45/45/26 56/45/26 54/46/26
f 62/48/27 46/47/27 54/47/27 60/48/27
f 45/40/28 61/39/28 59/39/28 56/40/28
f 42/53/29 41/54/29 61/39/29 62/48/29
f 55/55/29 53/56/29 60/48/29 59/39/29
f 53/56/29 42/53/29 62/48/29 60/48/29
f 41/54/29 55/55/29 59/39/29 61/39/29
f 57/57/30 58/58/30 62/48/30 61/39/30
f 44/59/30 43/60/30 65/42/30 66/49/30
f 43/60/30 57/57/30 61/39/30 65/42/30
f 58/58/30 44/59/30 66/49/30 62/48/30
f 63/61/31 64/62/31 66/49/31 65/42/31
f 52/63/31 51/64/31 67/42/31 68/49/31
f 64/62/31 52/63/31 68/49/31 66/49/31
f 51/64/31 63/61/31 65/42/31 67/42/31
o Cube.005
v 0.545495 6.927140 10.338954
v 0.545495 2.471611 10.338954
v 0.127993 6.969607 4.770877
v 0.127993 2.514079 4.770877
vn 0.9972 -0.0000 -0.0748
vt 0.383001 0.750000
vt 0.616999 0.750000
vt 0.616999 0.750000
vt 0.383001 0.750000
s 0
usemtl Material.001
f 72/65/32 71/66/32 69/67/32 70/68/32
o Cube.006
v 0.121827 7.048560 4.537276
v 0.121827 2.434177 4.537276
v 0.201996 6.962828 -5.051193
v 0.201996 2.348445 -5.051193
vn 1.0000 -0.0000 0.0084
vt 0.378829 0.503453
vt 0.621171 0.503453
vt 0.621171 0.746547
vt 0.378829 0.746547
s 0
usemtl Material.001
f 76/69/33 75/70/33 73/71/33 74/72/33
o Cube.007
v 0.210187 6.892409 -5.230742
v 0.210187 2.413836 -5.230742
v 1.074478 2.254967 -10.544466
v 1.074478 6.733541 -10.544466
vn 0.9870 -0.0000 0.1605
vt 0.617604 0.500000
vt 0.382396 0.500000
vt 0.382396 0.500000
vt 0.617604 0.500000
s 0
usemtl Material.001
f 77/73/34 78/74/34 79/75/34 80/76/34
